<svg width="24" height="24" viewBox="0 0 24 24" fill="none" xmlns="http://www.w3.org/2000/svg">
<path fill-rule="evenodd" clip-rule="evenodd" d="M12.7071 3.12132C12.3166 2.7308 11.6834 2.7308 11.2929 3.12132L8.41424 6H15.5858L12.7071 3.12132ZM9.87871 1.70711C11.0503 0.535538 12.9498 0.535536 14.1213 1.70711L20.4142 8H3.58582L9.87871 1.70711Z" fill="#57B3BD"/>
<path d="M2.65803 8.07071C2.615 7.76949 2.84873 7.5 3.15301 7.5H20.847C21.1513 7.5 21.385 7.76949 21.342 8.07071L19.873 18.3536C19.697 19.5852 18.6422 20.5 17.3981 20.5H6.60189C5.35776 20.5 4.30296 19.5852 4.12701 18.3536L2.65803 8.07071Z" stroke="black" stroke-linecap="round" stroke-linejoin="round"/>
<path fill-rule="evenodd" clip-rule="evenodd" d="M8 11C8.55228 11 9 11.4477 9 12V16C9 16.5523 8.55228 17 8 17C7.44772 17 7 16.5523 7 16V12C7 11.4477 7.44772 11 8 11Z" fill="#57B3BD"/>
<path fill-rule="evenodd" clip-rule="evenodd" d="M12 11C12.5523 11 13 11.4477 13 12V16C13 16.5523 12.5523 17 12 17C11.4477 17 11 16.5523 11 16V12C11 11.4477 11.4477 11 12 11Z" fill="#57B3BD"/>
<path fill-rule="evenodd" clip-rule="evenodd" d="M16 11C16.5523 11 17 11.4477 17 12V16C17 16.5523 16.5523 17 16 17C15.4477 17 15 16.5523 15 16V12C15 11.4477 15.4477 11 16 11Z" fill="#57B3BD"/>
</svg>
