<svg width="26" height="25" viewBox="0 0 26 25" fill="none" xmlns="http://www.w3.org/2000/svg">
<path d="M2.68415 22.8158L2.68413 22.8158C1.87723 22.0089 1.44573 20.9378 1.22436 19.2913C1.00106 17.6304 1 15.4604 1 12.5C1 9.53958 1.00106 7.36957 1.22436 5.70867C1.44573 4.06216 1.87723 2.99104 2.68414 2.18414L2.68414 2.18414C3.49104 1.37723 4.56216 0.945734 6.20867 0.724365C7.86957 0.501062 10.0396 0.5 13 0.5C15.9604 0.5 18.1304 0.501062 19.7913 0.724365C21.4378 0.945734 22.5089 1.37723 23.3158 2.18413L23.3158 2.18415C24.1227 2.99105 24.5543 4.06216 24.7756 5.70867C24.9989 7.36957 25 9.53958 25 12.5C25 15.4604 24.9989 17.6304 24.7756 19.2913C24.5543 20.9378 24.1227 22.0089 23.3158 22.8158L23.3158 22.8158C22.5089 23.6227 21.4378 24.0543 19.7913 24.2756C18.1304 24.4989 15.9604 24.5 13 24.5C10.0396 24.5 7.86957 24.4989 6.20867 24.2756C4.56216 24.0543 3.49105 23.6227 2.68415 22.8158Z" stroke="black"/>
<path fill-rule="evenodd" clip-rule="evenodd" d="M14.5625 15.625C14.5625 15.1072 14.9823 14.6875 15.5 14.6875H20.5C21.0177 14.6875 21.4375 15.1072 21.4375 15.625C21.4375 16.1428 21.0177 16.5625 20.5 16.5625H15.5C14.9823 16.5625 14.5625 16.1428 14.5625 15.625ZM14.5625 19.375C14.5625 18.8572 14.9823 18.4375 15.5 18.4375H20.5C21.0177 18.4375 21.4375 18.8572 21.4375 19.375C21.4375 19.8928 21.0177 20.3125 20.5 20.3125H15.5C14.9823 20.3125 14.5625 19.8928 14.5625 19.375Z" fill="black"/>
<path fill-rule="evenodd" clip-rule="evenodd" d="M5.46208 14.9621C5.8282 14.596 6.4218 14.596 6.78791 14.9621L8.00001 16.1742L9.21208 14.9621C9.5782 14.596 10.1718 14.596 10.5379 14.9621C10.904 15.3282 10.904 15.9218 10.5379 16.288L9.32583 17.5L10.5379 18.7121C10.904 19.0782 10.904 19.6717 10.5379 20.0378C10.1718 20.404 9.57818 20.404 9.21207 20.0378L8.00001 18.8258L6.78792 20.038C6.42181 20.404 5.82822 20.404 5.4621 20.038C5.09598 19.6718 5.09598 19.0782 5.4621 18.7121L6.67418 17.5L5.46208 16.288C5.09597 15.9218 5.09597 15.3282 5.46208 14.9621Z" fill="white"/>
<path fill-rule="evenodd" clip-rule="evenodd" d="M14.5625 8.125C14.5625 7.60724 14.9823 7.1875 15.5 7.1875H20.5C21.0177 7.1875 21.4375 7.60724 21.4375 8.125C21.4375 8.64276 21.0177 9.0625 20.5 9.0625H15.5C14.9823 9.0625 14.5625 8.64276 14.5625 8.125Z" fill="white"/>
<path fill-rule="evenodd" clip-rule="evenodd" d="M8 4.6875C8.51776 4.6875 8.9375 5.10724 8.9375 5.625V7.18753H10.5C11.0177 7.18753 11.4375 7.60725 11.4375 8.12503C11.4375 8.64279 11.0177 9.06252 10.5 9.06252H8.9375V10.625C8.9375 11.1428 8.51776 11.5625 8 11.5625C7.48224 11.5625 7.0625 11.1428 7.0625 10.625V9.06252H5.5C4.98224 9.06252 4.5625 8.64279 4.5625 8.12503C4.5625 7.60725 4.98224 7.18753 5.5 7.18753H7.0625V5.625C7.0625 5.10724 7.48224 4.6875 8 4.6875Z" fill="black"/>
</svg>
