<svg width="22" height="23" viewBox="0 0 22 23" fill="none" xmlns="http://www.w3.org/2000/svg">
<path d="M18.5 22.5H3.79999C2.41927 22.5 1.29999 21.3807 1.29999 20V3C1.29999 1.61929 2.41928 0.5 3.79999 0.5H15.6573C16.3204 0.5 16.9563 0.763392 17.4251 1.23223L20.2678 4.07487C20.7366 4.54372 21 5.1796 21 5.84264V20C21 21.3807 19.8807 22.5 18.5 22.5Z" stroke="black"/>
<path fill-rule="evenodd" clip-rule="evenodd" d="M5.40002 10.3501C5.40002 9.71495 5.9149 9.20007 6.55002 9.20007H15.75C16.3852 9.20007 16.9 9.71495 16.9 10.3501C16.9 10.9852 16.3852 11.5001 15.75 11.5001H6.55002C5.9149 11.5001 5.40002 10.9852 5.40002 10.3501Z" fill="white"/>
<path fill-rule="evenodd" clip-rule="evenodd" d="M5.40002 14.9499C5.40002 14.3148 5.9149 13.7999 6.55002 13.7999H11.15C11.7852 13.7999 12.3 14.3148 12.3 14.9499C12.3 15.5851 11.7852 16.0999 11.15 16.0999H6.55002C5.9149 16.0999 5.40002 15.5851 5.40002 14.9499Z" fill="white"/>
<path d="M17.7131 0.813172L20.6868 3.78683C21.2075 4.30749 21.5 5.01367 21.5 5.75H17.75C16.6454 5.75 15.75 4.85457 15.75 3.75V0C16.4863 0 17.1925 0.292507 17.7131 0.813172Z" fill="white"/>
</svg>
