<svg width="30" height="30" viewBox="0 0 30 30" fill="none" xmlns="http://www.w3.org/2000/svg">
<g clip-path="url(#clip0_415_2236)">
<path d="M4.68415 25.3158L4.68413 25.3158C3.87723 24.5089 3.44573 23.4378 3.22436 21.7913C3.00106 20.1304 3 17.9604 3 15C3 12.0396 3.00106 9.86957 3.22436 8.20867C3.44573 6.56216 3.87723 5.49104 4.68414 4.68414L4.68414 4.68414C5.49104 3.87723 6.56216 3.44573 8.20867 3.22436C9.86957 3.00106 12.0396 3 15 3C17.9604 3 20.1304 3.00106 21.7913 3.22436C23.4378 3.44573 24.5089 3.87723 25.3158 4.68413L25.3158 4.68415C26.1227 5.49105 26.5543 6.56216 26.7756 8.20867C26.9989 9.86957 27 12.0396 27 15C27 17.9604 26.9989 20.1304 26.7756 21.7913C26.5543 23.4378 26.1227 24.5089 25.3158 25.3158L25.3158 25.3158C24.5089 26.1227 23.4378 26.5543 21.7913 26.7756C20.1304 26.9989 17.9604 27 15 27C12.0396 27 9.86957 26.9989 8.20867 26.7756C6.56216 26.5543 5.49105 26.1227 4.68415 25.3158Z" stroke="black"/>
<path fill-rule="evenodd" clip-rule="evenodd" d="M16.5625 18.125C16.5625 17.6072 16.9823 17.1875 17.5 17.1875H22.5C23.0177 17.1875 23.4375 17.6072 23.4375 18.125C23.4375 18.6428 23.0177 19.0625 22.5 19.0625H17.5C16.9823 19.0625 16.5625 18.6428 16.5625 18.125ZM16.5625 21.875C16.5625 21.3572 16.9823 20.9375 17.5 20.9375H22.5C23.0177 20.9375 23.4375 21.3572 23.4375 21.875C23.4375 22.3928 23.0177 22.8125 22.5 22.8125H17.5C16.9823 22.8125 16.5625 22.3928 16.5625 21.875Z" fill="#57B3BD"/>
<path fill-rule="evenodd" clip-rule="evenodd" d="M7.46208 17.4621C7.8282 17.096 8.4218 17.096 8.78791 17.4621L10 18.6742L11.2121 17.4621C11.5782 17.096 12.1718 17.096 12.5379 17.4621C12.904 17.8282 12.904 18.4218 12.5379 18.788L11.3258 20L12.5379 21.2121C12.904 21.5782 12.904 22.1717 12.5379 22.5378C12.1718 22.904 11.5782 22.904 11.2121 22.5378L10 21.3258L8.78792 22.538C8.42181 22.904 7.82822 22.904 7.4621 22.538C7.09598 22.1718 7.09598 21.5782 7.4621 21.2121L8.67418 20L7.46208 18.788C7.09597 18.4218 7.09597 17.8282 7.46208 17.4621Z" fill="#97CACF"/>
<path fill-rule="evenodd" clip-rule="evenodd" d="M16.5625 10.625C16.5625 10.1072 16.9823 9.6875 17.5 9.6875H22.5C23.0177 9.6875 23.4375 10.1072 23.4375 10.625C23.4375 11.1428 23.0177 11.5625 22.5 11.5625H17.5C16.9823 11.5625 16.5625 11.1428 16.5625 10.625Z" fill="#97CACF"/>
<path fill-rule="evenodd" clip-rule="evenodd" d="M10 7.1875C10.5178 7.1875 10.9375 7.60724 10.9375 8.125V9.68753H12.5C13.0177 9.68753 13.4375 10.1073 13.4375 10.625C13.4375 11.1428 13.0177 11.5625 12.5 11.5625H10.9375V13.125C10.9375 13.6428 10.5178 14.0625 10 14.0625C9.48224 14.0625 9.0625 13.6428 9.0625 13.125V11.5625H7.5C6.98224 11.5625 6.5625 11.1428 6.5625 10.625C6.5625 10.1073 6.98224 9.68753 7.5 9.68753H9.0625V8.125C9.0625 7.60724 9.48224 7.1875 10 7.1875Z" fill="#57B3BD"/>
</g>
<defs>
<clipPath id="clip0_415_2236">
<rect width="30" height="30" fill="white"/>
</clipPath>
</defs>
</svg>
