<svg width="24" height="24" viewBox="0 0 24 24" fill="none" xmlns="http://www.w3.org/2000/svg">
<path d="M3.73315 3.58132C3.98163 3.44246 4.19278 3.23271 4.28616 2.96381L4.33248 2.83045C4.50515 2.33329 4.97371 2 5.50001 2C6.02631 2 6.49487 2.33329 6.66754 2.83045L6.71386 2.96381C6.80725 3.23271 7.01839 3.44246 7.26687 3.58132C7.5068 3.71541 7.78091 3.78245 8.05061 3.72948L8.31242 3.67806C8.79768 3.58276 9.29068 3.80153 9.54559 4.2253C9.81485 4.6729 9.75625 5.24452 9.40178 5.62818L9.27799 5.76216C9.09478 5.96046 9.01618 6.23002 9.01618 6.49999C9.01618 6.76996 9.09479 7.03952 9.27799 7.23781L9.40177 7.37179C9.75625 7.75545 9.81485 8.32707 9.54559 8.77468C9.29067 9.19845 8.79768 9.41722 8.31242 9.32191L8.05066 9.2705C7.78094 9.21753 7.50682 9.28458 7.26688 9.41867C7.01839 9.55754 6.80725 9.7673 6.71385 10.0362L6.66754 10.1695C6.49487 10.6667 6.02631 11 5.50001 11C4.97371 11 4.50515 10.6667 4.33248 10.1695L4.28617 10.0362C4.19278 9.7673 3.98163 9.55754 3.73314 9.41867C3.4932 9.28458 3.21907 9.21752 2.94936 9.27049L2.68758 9.32191C2.20232 9.41722 1.70933 9.19845 1.45441 8.77468C1.18515 8.32707 1.24375 7.75545 1.59822 7.37179L1.72204 7.23777C1.90524 7.03949 1.98384 6.76994 1.98384 6.49999C1.98384 6.23003 1.90524 5.96048 1.72204 5.7622L1.59822 5.62818C1.24375 5.24452 1.18515 4.6729 1.45441 4.2253C1.70933 3.80153 2.20232 3.58276 2.68758 3.67806L2.94941 3.72949C3.21911 3.78246 3.49322 3.71541 3.73315 3.58132Z" fill="#C8E4E7"/>
<path d="M6.75 6.5C6.75 7.19036 6.19036 7.75 5.5 7.75C4.80964 7.75 4.25 7.19036 4.25 6.5C4.25 5.80964 4.80964 5.25 5.5 5.25C6.19036 5.25 6.75 5.80964 6.75 6.5Z" fill="#588DC2" stroke="black" stroke-width="0.5"/>
<path d="M12.7992 11.072C13.2885 10.7986 13.7429 10.3646 13.9493 9.77039L14.0404 9.50788C14.25 8.90449 14.8187 8.5 15.4574 8.5H15.5426C16.1814 8.5 16.75 8.90449 16.9596 9.50788L17.0508 9.7704C17.2571 10.3646 17.7116 10.7986 18.2009 11.072C18.6761 11.3376 19.2535 11.4897 19.8474 11.3731L20.2837 11.2874C20.886 11.1691 21.4978 11.4406 21.8142 11.9666C22.1484 12.5221 22.0756 13.2315 21.6357 13.7077L21.4294 13.931L21.7966 14.2703L21.4294 13.931C21.0172 14.3771 20.8603 14.96 20.8603 15.5C20.8603 16.04 21.0172 16.6229 21.4294 17.069L21.6357 17.2923C22.0756 17.7684 22.1484 18.4779 21.8142 19.0334C21.4978 19.5593 20.886 19.8308 20.2837 19.7126L19.8475 19.6269C19.2536 19.5102 18.6761 19.6624 18.2009 19.928C17.7116 20.2014 17.2571 20.6354 17.0508 21.2296L16.9596 21.4921C16.75 22.0955 16.1814 22.5 15.5426 22.5H15.4574C14.8187 22.5 14.25 22.0955 14.0404 21.4921L13.9493 21.2296C13.7429 20.6354 13.2885 20.2014 12.7992 19.928C12.3239 19.6624 11.7465 19.5102 11.1526 19.6269L10.7163 19.7126C10.114 19.8308 9.50217 19.5593 9.1858 19.0334C8.85163 18.4779 8.92436 17.7684 9.36429 17.2923L9.57065 17.0689L9.20341 16.7296L9.57066 17.0689C9.98281 16.6228 10.1397 16.04 10.1397 15.5C10.1397 14.96 9.98281 14.3771 9.57066 13.931L9.36429 13.7077C8.92436 13.2315 8.85163 12.5221 9.1858 11.9666C9.50217 11.4406 10.114 11.1691 10.7163 11.2874L11.1527 11.3731C11.7465 11.4897 12.324 11.3376 12.7992 11.072Z" stroke="black" stroke-linecap="round" stroke-linejoin="round"/>
<path fill-rule="evenodd" clip-rule="evenodd" d="M15.5 18C16.8807 18 18 16.8807 18 15.5C18 14.1193 16.8807 13 15.5 13C14.1193 13 13 14.1193 13 15.5C13 16.8807 14.1193 18 15.5 18Z" fill="#C8E4E7"/>
</svg>
