<svg width="24" height="24" viewBox="0 0 24 24" fill="none" xmlns="http://www.w3.org/2000/svg">
<path d="M3.5 5C3.5 3.61929 4.61929 2.5 6 2.5H15.7574C16.4204 2.5 17.0563 2.76339 17.5251 3.23223L19.7678 5.47487C20.2366 5.94372 20.5 6.5796 20.5 7.24264V19C20.5 20.3807 19.3807 21.5 18 21.5H6C4.61929 21.5 3.5 20.3807 3.5 19V5Z" stroke="black"/>
<path fill-rule="evenodd" clip-rule="evenodd" d="M7 11C7 10.4477 7.44772 10 8 10H16C16.5523 10 17 10.4477 17 11C17 11.5523 16.5523 12 16 12H8C7.44772 12 7 11.5523 7 11Z" fill="white"/>
<path fill-rule="evenodd" clip-rule="evenodd" d="M7 15C7 14.4477 7.44772 14 8 14H12C12.5523 14 13 14.4477 13 15C13 15.5523 12.5523 16 12 16H8C7.44772 16 7 15.5523 7 15Z" fill="white"/>
<path d="M17.7071 2.70711L20.2929 5.29289C20.7456 5.74565 21 6.35971 21 7H18C16.8954 7 16 6.10457 16 5V2C16.6403 2 17.2544 2.25435 17.7071 2.70711Z" fill="white"/>
</svg>
