<svg width="26" height="27" viewBox="0 0 26 27" fill="none" xmlns="http://www.w3.org/2000/svg">
<path fill-rule="evenodd" clip-rule="evenodd" d="M13.9044 3.77609C13.4171 3.2888 12.6271 3.2888 12.1398 3.77609L8.54779 7.36809H17.4964L13.9044 3.77609ZM10.3751 2.01145C11.837 0.549571 14.2072 0.549568 15.6691 2.01145L23.5213 9.86367H2.52292L10.3751 2.01145Z" fill="white"/>
<path d="M1.69717 9.11572H24.347C24.6513 9.11572 24.885 9.38522 24.842 9.68643L22.8774 23.4384C22.7015 24.67 21.6467 25.5848 20.4025 25.5848H5.64163C4.3975 25.5848 3.3427 24.67 3.16676 23.4384L1.20219 9.68643C1.15916 9.38522 1.39289 9.11572 1.69717 9.11572Z" stroke="black" stroke-linecap="round" stroke-linejoin="round"/>
<path fill-rule="evenodd" clip-rule="evenodd" d="M8.03087 13.6072C8.72001 13.6072 9.27867 14.1658 9.27867 14.855V19.8461C9.27867 20.5353 8.72001 21.0939 8.03087 21.0939C7.34174 21.0939 6.78308 20.5353 6.78308 19.8461V14.855C6.78308 14.1658 7.34174 13.6072 8.03087 13.6072Z" fill="white"/>
<path fill-rule="evenodd" clip-rule="evenodd" d="M13.0221 13.6072C13.7112 13.6072 14.2698 14.1658 14.2698 14.855V19.8461C14.2698 20.5353 13.7112 21.0939 13.0221 21.0939C12.3329 21.0939 11.7743 20.5353 11.7743 19.8461V14.855C11.7743 14.1658 12.3329 13.6072 13.0221 13.6072Z" fill="white"/>
<path fill-rule="evenodd" clip-rule="evenodd" d="M18.0133 13.6072C18.7024 13.6072 19.2611 14.1658 19.2611 14.855V19.8461C19.2611 20.5353 18.7024 21.0939 18.0133 21.0939C17.3241 21.0939 16.7655 20.5353 16.7655 19.8461V14.855C16.7655 14.1658 17.3241 13.6072 18.0133 13.6072Z" fill="white"/>
</svg>
