<svg width="30" height="29" viewBox="0 0 30 29" fill="none" xmlns="http://www.w3.org/2000/svg">
<path d="M3.81089 2.60843C4.1422 2.42328 4.42372 2.14361 4.54824 1.78508L4.60999 1.60727C4.84022 0.944383 5.46497 0.5 6.1667 0.5V0.5C6.86843 0.5 7.49319 0.944382 7.72341 1.60727L7.78517 1.78509C7.90968 2.14361 8.1912 2.42328 8.52251 2.60843V2.60843C8.84242 2.78721 9.2079 2.87661 9.5675 2.80598L9.91658 2.73742C10.5636 2.61034 11.2209 2.90204 11.5608 3.46706V3.46706C11.9198 4.06387 11.8417 4.82603 11.3691 5.33758L11.204 5.51622C10.9597 5.78061 10.8549 6.14003 10.8549 6.49999V6.49999C10.8549 6.85994 10.9597 7.21936 11.204 7.48375L11.3691 7.66239C11.8417 8.17394 11.9198 8.9361 11.5608 9.5329V9.5329C11.2209 10.0979 10.5636 10.3896 9.91658 10.2625L9.56756 10.194C9.20795 10.1234 8.84245 10.2128 8.52253 10.3916V10.3916C8.19121 10.5767 7.90968 10.8564 7.78516 11.2149L7.72341 11.3927C7.49319 12.0556 6.86843 12.5 6.1667 12.5V12.5C5.46497 12.5 4.84022 12.0556 4.60999 11.3927L4.54825 11.2149C4.42372 10.8564 4.14219 10.5767 3.81087 10.3916V10.3916C3.49095 10.2128 3.12545 10.1234 2.76583 10.194L2.4168 10.2625C1.76978 10.3896 1.11245 10.0979 0.772564 9.5329V9.5329C0.413558 8.9361 0.491691 8.17394 0.964321 7.66239L1.12941 7.4837C1.37367 7.21932 1.47847 6.85993 1.47848 6.49999V6.49999C1.47848 6.14005 1.37367 5.78064 1.12941 5.51627L0.96432 5.33758C0.491691 4.82603 0.413558 4.06387 0.772564 3.46706V3.46706C1.11245 2.90204 1.76978 2.61034 2.4168 2.73742L2.7659 2.80598C3.1255 2.87661 3.49098 2.78721 3.81089 2.60843V2.60843Z" fill="#C8E4E7"/>
<path d="M7.91666 6.50012C7.91666 7.46662 7.13315 8.25012 6.16666 8.25012C5.20016 8.25012 4.41666 7.46662 4.41666 6.50012C4.41666 5.53362 5.20016 4.75012 6.16666 4.75012C7.13315 4.75012 7.91666 5.53362 7.91666 6.50012Z" fill="#588DC2" stroke="black" stroke-width="0.5"/>
<path d="M17.2466 10.8875L17.5521 10.0079C17.7617 9.40449 18.3304 9 18.9691 9H20.0311C20.6699 9 21.2385 9.40449 21.4481 10.0079L21.7536 10.8875C21.9933 11.5777 22.5183 12.0888 23.1072 12.409C23.1538 12.4343 23.2 12.4601 23.2459 12.4864C23.8078 12.8077 24.4907 12.9859 25.1829 12.85L26.2666 12.6371C26.8862 12.5154 27.5156 12.7947 27.841 13.3358L28.2981 14.0956C28.6419 14.667 28.567 15.3969 28.1145 15.8867L27.5215 16.5285C27.0119 17.08 26.8129 17.8063 26.8138 18.4905V18.5094C26.8129 19.1936 27.012 19.9199 27.5215 20.4715L28.1145 21.1132C28.567 21.6031 28.6419 22.3329 28.2981 22.9044L27.841 23.6642C27.5156 24.2052 26.8861 24.4845 26.2666 24.3628L25.1829 24.15C24.4907 24.014 23.8079 24.1923 23.246 24.5136C23.2001 24.5399 23.1538 24.5657 23.1072 24.591C22.5183 24.9112 21.9933 25.4223 21.7536 26.1125L21.4481 26.9921C21.2385 27.5955 20.6699 28 20.0311 28H18.9691C18.3304 28 17.7617 27.5955 17.5521 26.9921L17.2467 26.1125C17.0069 25.4223 16.482 24.9112 15.893 24.591C15.8464 24.5657 15.8002 24.5399 15.7542 24.5136C15.1923 24.1923 14.5095 24.014 13.8173 24.15L12.7336 24.3628C12.114 24.4845 11.4846 24.2052 11.1591 23.6642L10.7021 22.9044C10.3583 22.3329 10.4331 21.6031 10.8857 21.1132L11.4787 20.4714C11.9883 19.9199 12.1873 19.1936 12.1864 18.5094V18.4906C12.1873 17.8064 11.9883 17.0801 11.4787 16.5285L10.8857 15.8867C10.4331 15.3969 10.3583 14.667 10.7021 14.0956L11.1591 13.3358C11.4846 12.7947 12.114 12.5154 12.7336 12.6371L13.8174 12.85C14.5095 12.9859 15.1924 12.8077 15.7543 12.4864C15.8002 12.4601 15.8464 12.4343 15.893 12.409C16.482 12.0888 17.0069 11.5777 17.2466 10.8875Z" stroke="black" stroke-linecap="round" stroke-linejoin="round"/>
<path fill-rule="evenodd" clip-rule="evenodd" d="M19.5001 21.8334C21.3411 21.8334 22.8334 20.341 22.8334 18.5001C22.8334 16.6591 21.3411 15.1667 19.5001 15.1667C17.6592 15.1667 16.1668 16.6591 16.1668 18.5001C16.1668 20.341 17.6592 21.8334 19.5001 21.8334Z" fill="#C8E4E7"/>
</svg>
